<svg xmlns="http://www.w3.org/2000/svg" xmlns:xlink="http://www.w3.org/1999/xlink" viewBox="0 0 491.8 427.5">
  <defs>
    <style>
      .cls-1, .cls-11, .cls-18, .cls-19, .cls-20, .cls-24, .cls-28, .cls-29, .cls-30, .cls-45, .cls-6 {
        fill: none;
      }

      .cls-2 {
        fill: url(#linear-gradient);
      }

      .cls-3 {
        clip-path: url(#clip-path);
      }

      .cls-39, .cls-4 {
        fill: #0049b0;
      }

      .cls-4 {
        opacity: 0.15;
      }

      .cls-12, .cls-16, .cls-17, .cls-31, .cls-32, .cls-34, .cls-37, .cls-4, .cls-46, .cls-47, .cls-49, .cls-55, .cls-60 {
        isolation: isolate;
      }

      .cls-5 {
        fill: #b2d4ff;
      }

      .cls-24, .cls-6 {
        stroke: #b2d4ff;
      }

      .cls-11, .cls-24, .cls-28, .cls-29, .cls-30, .cls-45, .cls-6 {
        stroke-miterlimit: 10;
      }

      .cls-28, .cls-29, .cls-6 {
        stroke-width: 2.27px;
      }

      .cls-7 {
        fill: url(#linear-gradient-2);
      }

      .cls-8 {
        fill: url(#linear-gradient-3);
      }

      .cls-9 {
        fill: url(#linear-gradient-4);
      }

      .cls-10 {
        fill: #00c7e5;
      }

      .cls-11 {
        stroke: #ff991f;
        stroke-width: 3.41px;
      }

      .cls-12, .cls-27 {
        fill: #ffc400;
      }

      .cls-12 {
        opacity: 0.8;
      }

      .cls-13 {
        fill: url(#linear-gradient-5);
      }

      .cls-14 {
        fill: url(#linear-gradient-6);
      }

      .cls-15 {
        clip-path: url(#clip-path-2);
      }

      .cls-16 {
        fill: #4c9aff;
      }

      .cls-16, .cls-76 {
        opacity: 0.5;
      }

      .cls-17, .cls-47 {
        opacity: 0.2;
      }

      .cls-17 {
        fill: url(#linear-gradient-7);
      }

      .cls-18, .cls-19, .cls-20 {
        stroke: #fff;
        stroke-linejoin: round;
      }

      .cls-18, .cls-19, .cls-20, .cls-24 {
        stroke-width: 1.88px;
      }

      .cls-19 {
        stroke-dasharray: 6.38 6.38;
      }

      .cls-20 {
        stroke-dasharray: 6.18 6.18;
      }

      .cls-21 {
        fill: url(#linear-gradient-8);
      }

      .cls-22 {
        fill: url(#linear-gradient-9);
      }

      .cls-23 {
        fill: url(#linear-gradient-10);
      }

      .cls-25 {
        fill: #ff991f;
      }

      .cls-26 {
        fill: #2684ff;
      }

      .cls-28 {
        stroke: url(#linear-gradient-11);
      }

      .cls-29 {
        stroke: url(#linear-gradient-12);
      }

      .cls-30 {
        stroke: #0065ff;
        stroke-linecap: round;
        stroke-width: 2.51px;
      }

      .cls-31, .cls-32, .cls-34, .cls-37 {
        opacity: 0.6;
      }

      .cls-31 {
        fill: url(#linear-gradient-13);
      }

      .cls-32 {
        fill: url(#linear-gradient-14);
      }

      .cls-33 {
        fill: url(#linear-gradient-15);
      }

      .cls-34 {
        fill: url(#linear-gradient-16);
      }

      .cls-35 {
        fill: url(#linear-gradient-17);
      }

      .cls-36 {
        fill: #e6fcff;
      }

      .cls-37 {
        fill: url(#linear-gradient-18);
      }

      .cls-38 {
        fill: url(#linear-gradient-19);
      }

      .cls-40 {
        fill: #feefd3;
      }

      .cls-41 {
        fill: #253858;
      }

      .cls-42 {
        fill: url(#linear-gradient-20);
      }

      .cls-43 {
        fill: #42526e;
      }

      .cls-44 {
        fill: #fcb123;
      }

      .cls-45 {
        stroke: #42526e;
        stroke-width: 1.47px;
      }

      .cls-46 {
        fill: #344563;
      }

      .cls-46, .cls-49, .cls-55, .cls-60 {
        opacity: 0.1;
      }

      .cls-47 {
        fill: url(#linear-gradient-21);
      }

      .cls-48 {
        fill: #00a3bf;
      }

      .cls-49 {
        fill: url(#linear-gradient-22);
      }

      .cls-50 {
        fill: #cf9e76;
      }

      .cls-51 {
        fill: #ffab00;
      }

      .cls-52 {
        fill: #b08874;
      }

      .cls-53 {
        fill: #172b4d;
      }

      .cls-54 {
        fill: url(#linear-gradient-23);
      }

      .cls-55 {
        fill: url(#linear-gradient-24);
      }

      .cls-56 {
        fill: #72594b;
      }

      .cls-57 {
        fill: #543e36;
      }

      .cls-58 {
        fill: url(#linear-gradient-25);
      }

      .cls-59 {
        fill: #dfe1e5;
      }

      .cls-60 {
        fill: url(#linear-gradient-26);
      }

      .cls-61 {
        fill: url(#linear-gradient-27);
      }

      .cls-62 {
        fill: #a27f68;
      }

      .cls-63 {
        fill: url(#linear-gradient-28);
      }

      .cls-64 {
        fill: #091e42;
      }

      .cls-65 {
        fill: #ff8b00;
      }

      .cls-66 {
        fill: url(#linear-gradient-29);
      }

      .cls-67 {
        fill: #fff0b2;
      }

      .cls-68 {
        fill: #8c715d;
      }

      .cls-69 {
        clip-path: url(#clip-path-3);
      }

      .cls-70 {
        fill: url(#linear-gradient-30);
      }

      .cls-71 {
        fill: #008da6;
      }

      .cls-72 {
        fill: #ffe380;
      }

      .cls-73 {
        fill: #b19177;
      }

      .cls-74 {
        fill: #00b8d9;
      }

      .cls-75 {
        fill: #fff;
      }

      .cls-77 {
        fill: #79e2f2;
      }
    </style>
    <linearGradient id="linear-gradient" x1="278" y1="90.08" x2="529.23" y2="341.32" gradientTransform="matrix(1, 0, 0, -1, 0, 429)" gradientUnits="userSpaceOnUse">
      <stop offset="0.14" stop-color="#deebff"/>
      <stop offset="0.4" stop-color="#deebff" stop-opacity="0.99"/>
      <stop offset="0.53" stop-color="#e0ecff" stop-opacity="0.96"/>
      <stop offset="0.63" stop-color="#e2eeff" stop-opacity="0.91"/>
      <stop offset="0.72" stop-color="#e6f0ff" stop-opacity="0.84"/>
      <stop offset="0.79" stop-color="#eaf2ff" stop-opacity="0.74"/>
      <stop offset="0.87" stop-color="#f0f6ff" stop-opacity="0.62"/>
      <stop offset="0.93" stop-color="#f6faff" stop-opacity="0.48"/>
      <stop offset="0.99" stop-color="#fefeff" stop-opacity="0.32"/>
      <stop offset="1" stop-color="#fff" stop-opacity="0.3"/>
    </linearGradient>
    <clipPath id="clip-path">
      <path class="cls-1" d="M487.4,378.7,282.7,343.1a2.4,2.4,0,0,1-1.8-2.5V86a2.3,2.3,0,0,1,1.8-2.5L487.4,47.9c2.3-.4,4.4,1.6,4.4,4.3V374.4C491.8,377.1,489.7,379.1,487.4,378.7Z"/>
    </clipPath>
    <linearGradient id="linear-gradient-2" x1="295.17" y1="158.02" x2="371.81" y2="234.66" gradientTransform="matrix(1, 0, 0, -1, 0, 429)" gradientUnits="userSpaceOnUse">
      <stop offset="0" stop-color="#deebff"/>
      <stop offset="0.74" stop-color="#fff"/>
    </linearGradient>
    <linearGradient id="linear-gradient-3" x1="380.21" y1="149.48" x2="469.49" y2="238.77" xlink:href="#linear-gradient-2"/>
    <linearGradient id="linear-gradient-4" x1="392.77" y1="160.19" x2="410.38" y2="177.8" gradientTransform="matrix(1, 0, 0, -1, 0, 429)" gradientUnits="userSpaceOnUse">
      <stop offset="0.04" stop-color="#0049b0"/>
      <stop offset="0.13" stop-color="#0551bb" stop-opacity="0.99"/>
      <stop offset="0.58" stop-color="#1d76ec" stop-opacity="0.92"/>
      <stop offset="0.82" stop-color="#2684ff" stop-opacity="0.9"/>
    </linearGradient>
    <linearGradient id="linear-gradient-5" x1="0.46" y1="87.58" x2="256.71" y2="343.83" gradientTransform="matrix(1, 0, 0, -1, 0, 429)" gradientUnits="userSpaceOnUse">
      <stop offset="0" stop-color="#deebff"/>
      <stop offset="0.12" stop-color="#deebff" stop-opacity="0.98"/>
      <stop offset="0.28" stop-color="#deebff" stop-opacity="0.92"/>
      <stop offset="0.44" stop-color="#deebff" stop-opacity="0.82"/>
      <stop offset="0.62" stop-color="#deebff" stop-opacity="0.68"/>
      <stop offset="0.81" stop-color="#deebff" stop-opacity="0.51"/>
      <stop offset="1" stop-color="#deebff" stop-opacity="0.3"/>
    </linearGradient>
    <linearGradient id="linear-gradient-6" x1="13.58" y1="101.51" x2="243.59" y2="331.51" gradientTransform="matrix(1, 0, 0, -1, 0, 429)" gradientUnits="userSpaceOnUse">
      <stop offset="0" stop-color="#b2d4ff"/>
      <stop offset="1" stop-color="#deebff"/>
    </linearGradient>
    <clipPath id="clip-path-2">
      <path class="cls-1" d="M122.1,119.1H15.6a2.5,2.5,0,0,1-2.5-2.5V99.1a2.6,2.6,0,0,1,2.5-2.6H122.1a2.6,2.6,0,0,1,2.5,2.6v17.5a2.5,2.5,0,0,1-2.5,2.5Zm119.5,0H135.1a2.5,2.5,0,0,1-2.5-2.5V99.1a2.6,2.6,0,0,1,2.5-2.6H241.6a2.6,2.6,0,0,1,2.5,2.6h0v17.5a2.5,2.5,0,0,1-2.5,2.5ZM122.1,328.4H15.6a2.5,2.5,0,0,1-2.5-2.5V127.3a2.5,2.5,0,0,1,2.5-2.5H122.1a2.5,2.5,0,0,1,2.5,2.5V325.9a2.5,2.5,0,0,1-2.5,2.5Zm122-2.5V127.3a2.5,2.5,0,0,0-2.5-2.5H135.1a2.5,2.5,0,0,0-2.5,2.5h0V325.9a2.5,2.5,0,0,0,2.5,2.5H241.6a2.5,2.5,0,0,0,2.5-2.5Z"/>
    </clipPath>
    <linearGradient id="linear-gradient-7" x1="76.4" y1="129.28" x2="144.3" y2="197.18" gradientTransform="matrix(1, 0, 0, -1, 0, 429)" gradientUnits="userSpaceOnUse">
      <stop offset="0" stop-color="#0049b0"/>
      <stop offset="0.99" stop-color="#0049b0"/>
      <stop offset="1" stop-color="#0049b0"/>
    </linearGradient>
    <linearGradient id="linear-gradient-8" x1="34.87" y1="238.97" x2="102.77" y2="306.87" xlink:href="#linear-gradient-2"/>
    <linearGradient id="linear-gradient-9" x1="34.87" y1="189.39" x2="102.77" y2="257.29" xlink:href="#linear-gradient-2"/>
    <linearGradient id="linear-gradient-10" x1="82.67" y1="135.55" x2="150.57" y2="203.45" xlink:href="#linear-gradient-2"/>
    <linearGradient id="linear-gradient-11" x1="342.56" y1="207.8" x2="342.56" y2="320.27" gradientTransform="matrix(1, 0, 0, -1, 0, 429)" gradientUnits="userSpaceOnUse">
      <stop offset="0" stop-color="#b2d4ff" stop-opacity="0"/>
      <stop offset="0.21" stop-color="#b2d4ff" stop-opacity="0.19"/>
      <stop offset="0.67" stop-color="#b2d4ff" stop-opacity="0.65"/>
      <stop offset="1" stop-color="#b2d4ff"/>
    </linearGradient>
    <linearGradient id="linear-gradient-12" x1="377.96" y1="211.51" x2="377.96" y2="323.97" xlink:href="#linear-gradient-11"/>
    <linearGradient id="linear-gradient-13" x1="156.39" y1="298.92" x2="156.39" y2="370.05" gradientTransform="matrix(1, 0, 0, -1, 0, 429)" gradientUnits="userSpaceOnUse">
      <stop offset="0" stop-color="#ffe380" stop-opacity="0"/>
      <stop offset="0.09" stop-color="#ffe07a" stop-opacity="0.05"/>
      <stop offset="0.24" stop-color="#ffd969" stop-opacity="0.18"/>
      <stop offset="0.46" stop-color="#ffcd4d" stop-opacity="0.4"/>
      <stop offset="0.71" stop-color="#ffbd28" stop-opacity="0.69"/>
      <stop offset="0.96" stop-color="#ffab00"/>
    </linearGradient>
    <linearGradient id="linear-gradient-14" x1="237.85" y1="317.48" x2="237.85" y2="429" gradientTransform="matrix(1, 0, 0, -1, 0, 429)" gradientUnits="userSpaceOnUse">
      <stop offset="0" stop-color="#00c7e5" stop-opacity="0"/>
      <stop offset="0.1" stop-color="#00c7e5" stop-opacity="0.06"/>
      <stop offset="0.28" stop-color="#00c7e5" stop-opacity="0.21"/>
      <stop offset="0.52" stop-color="#00c7e5" stop-opacity="0.46"/>
      <stop offset="0.81" stop-color="#00c7e5" stop-opacity="0.81"/>
      <stop offset="0.96" stop-color="#00c7e5"/>
    </linearGradient>
    <linearGradient id="linear-gradient-15" x1="196.61" y1="307.39" x2="196.61" y2="411.02" gradientTransform="matrix(1, 0, 0, -1, 0, 429)" gradientUnits="userSpaceOnUse">
      <stop offset="0.18" stop-color="#2684ff" stop-opacity="0"/>
      <stop offset="0.27" stop-color="#2380f9" stop-opacity="0.07"/>
      <stop offset="0.45" stop-color="#1c75ea" stop-opacity="0.26"/>
      <stop offset="0.68" stop-color="#1062d2" stop-opacity="0.57"/>
      <stop offset="0.96" stop-color="#0049b1" stop-opacity="0.99"/>
      <stop offset="0.96" stop-color="#0049b0"/>
    </linearGradient>
    <linearGradient id="linear-gradient-16" x1="204.28" y1="152.83" x2="204.28" y2="231.69" gradientTransform="matrix(1, 0, 0, -1, 0, 429)" gradientUnits="userSpaceOnUse">
      <stop offset="0" stop-color="#e6fcff" stop-opacity="0"/>
      <stop offset="0.08" stop-color="#e6fcff" stop-opacity="0.15"/>
      <stop offset="0.22" stop-color="#e6fcff" stop-opacity="0.37"/>
      <stop offset="0.36" stop-color="#e6fcff" stop-opacity="0.56"/>
      <stop offset="0.5" stop-color="#e6fcff" stop-opacity="0.72"/>
      <stop offset="0.63" stop-color="#e6fcff" stop-opacity="0.84"/>
      <stop offset="0.76" stop-color="#e6fcff" stop-opacity="0.93"/>
      <stop offset="0.89" stop-color="#e6fcff" stop-opacity="0.98"/>
      <stop offset="1" stop-color="#e6fcff"/>
    </linearGradient>
    <linearGradient id="linear-gradient-17" x1="194.44" y1="221.85" x2="214.12" y2="241.54" gradientTransform="matrix(1, 0, 0, -1, 0, 429)" gradientUnits="userSpaceOnUse">
      <stop offset="0.17" stop-color="#00c7e5"/>
      <stop offset="0.49" stop-color="#79e2f2"/>
      <stop offset="0.82" stop-color="#b3f5ff"/>
      <stop offset="1" stop-color="#b3f5ff"/>
    </linearGradient>
    <linearGradient id="linear-gradient-18" x1="40.6" y1="297.07" x2="40.6" y2="375.93" gradientTransform="matrix(1, 0, 0, -1, 0, 429)" gradientUnits="userSpaceOnUse">
      <stop offset="0" stop-color="#b3f5ff" stop-opacity="0"/>
      <stop offset="0.07" stop-color="#b3f5ff" stop-opacity="0.13"/>
      <stop offset="0.21" stop-color="#b3f5ff" stop-opacity="0.36"/>
      <stop offset="0.35" stop-color="#b3f5ff" stop-opacity="0.55"/>
      <stop offset="0.49" stop-color="#b3f5ff" stop-opacity="0.71"/>
      <stop offset="0.63" stop-color="#b3f5ff" stop-opacity="0.84"/>
      <stop offset="0.76" stop-color="#b3f5ff" stop-opacity="0.93"/>
      <stop offset="0.88" stop-color="#b3f5ff" stop-opacity="0.98"/>
      <stop offset="1" stop-color="#b3f5ff"/>
    </linearGradient>
    <linearGradient id="linear-gradient-19" x1="30.75" y1="365.8" x2="50.44" y2="385.49" xlink:href="#linear-gradient-17"/>
    <linearGradient id="linear-gradient-20" x1="4710.83" y1="2876.61" x2="4710.83" y2="2985.76" gradientTransform="matrix(-1, 0, 0, 1, 5115.66, -2629.11)" gradientUnits="userSpaceOnUse">
      <stop offset="0" stop-color="#ffab00"/>
      <stop offset="1" stop-color="#ffe380"/>
    </linearGradient>
    <linearGradient id="linear-gradient-21" x1="412.57" y1="182.54" x2="412.57" y2="320.88" gradientTransform="matrix(1, 0, 0, -1, 0, 429)" gradientUnits="userSpaceOnUse">
      <stop offset="0.59" stop-color="#0049b0" stop-opacity="0"/>
      <stop offset="0.71" stop-color="#0049b0" stop-opacity="0.27"/>
      <stop offset="0.98" stop-color="#0049b0" stop-opacity="0.95"/>
      <stop offset="1" stop-color="#0049b0"/>
    </linearGradient>
    <linearGradient id="linear-gradient-22" x1="133.5" y1="15.36" x2="198.73" y2="15.36" gradientTransform="matrix(1, 0, 0, -1, 0, 429)" gradientUnits="userSpaceOnUse">
      <stop offset="0" stop-color="#091e42"/>
      <stop offset="0.26" stop-color="#091e42" stop-opacity="0.94"/>
      <stop offset="0.5" stop-color="#091e42" stop-opacity="0.77"/>
      <stop offset="0.73" stop-color="#091e42" stop-opacity="0.48"/>
      <stop offset="0.96" stop-color="#091e42" stop-opacity="0.08"/>
      <stop offset="1" stop-color="#091e42" stop-opacity="0"/>
    </linearGradient>
    <linearGradient id="linear-gradient-23" x1="4430.53" y1="83.98" x2="4399.12" y2="83.98" gradientTransform="translate(4579.4 429) rotate(180)" gradientUnits="userSpaceOnUse">
      <stop offset="0" stop-color="#ffe380"/>
      <stop offset="1" stop-color="#ffab00"/>
    </linearGradient>
    <linearGradient id="linear-gradient-24" x1="390.33" y1="7.84" x2="455.57" y2="7.84" xlink:href="#linear-gradient-22"/>
    <linearGradient id="linear-gradient-25" x1="210.07" y1="68.45" x2="238.53" y2="68.45" gradientTransform="translate(630 429) rotate(180)" gradientUnits="userSpaceOnUse">
      <stop offset="0.1" stop-color="#0065ff"/>
      <stop offset="1" stop-color="#0049b0"/>
    </linearGradient>
    <linearGradient id="linear-gradient-26" x1="2356.85" y1="18.52" x2="2423.84" y2="18.52" gradientTransform="translate(2469.6 429) rotate(180)" xlink:href="#linear-gradient-22"/>
    <linearGradient id="linear-gradient-27" x1="2380.1" y1="121.52" x2="2389.27" y2="121.52" gradientTransform="translate(2469.6 429) rotate(180)" gradientUnits="userSpaceOnUse">
      <stop offset="0" stop-color="#72594b"/>
      <stop offset="0.56" stop-color="#8c715d"/>
    </linearGradient>
    <linearGradient id="linear-gradient-28" x1="114.41" y1="110.55" x2="102.69" y2="98.76" gradientTransform="matrix(1, 0, 0, -1, -15.11, 429)" gradientUnits="userSpaceOnUse">
      <stop offset="0" stop-color="#ffc400"/>
      <stop offset="0.01" stop-color="#ffc202"/>
      <stop offset="0.15" stop-color="#ffb00f"/>
      <stop offset="0.32" stop-color="#ffa318"/>
      <stop offset="0.54" stop-color="#ff9b1d"/>
      <stop offset="1" stop-color="#ff991f"/>
    </linearGradient>
    <linearGradient id="linear-gradient-29" x1="99.3" y1="90.09" x2="99.3" y2="120.67" gradientTransform="matrix(1, 0, 0, -1, -15.11, 429)" gradientUnits="userSpaceOnUse">
      <stop offset="0" stop-color="#ff991f"/>
      <stop offset="0.77" stop-color="#ffc400"/>
    </linearGradient>
    <clipPath id="clip-path-3">
      <path class="cls-1" d="M85.9,306c3.5.5,3.8.6,4.2.2a9.2,9.2,0,0,0,.9-2.5c.2-.8.3-1.4.4-1.9s.9.3,1.1,0,0-.5-.2-1.1a10.5,10.5,0,0,1-.5-1.9v-.4a8.3,8.3,0,0,0-.3-2.2,7,7,0,0,0-1.9-2.9,6.1,6.1,0,0,0-6.9-.9,6.2,6.2,0,0,0-3.1,5,12.3,12.3,0,0,0,.7,4.2h0a.4.4,0,0,0,.1.3c.1.5.9,1,.9,1s.8.2,1.1.5.5,1.2,1,1.8S84.2,305.8,85.9,306Z"/>
    </clipPath>
    <linearGradient id="linear-gradient-30" x1="89.69" y1="107.21" x2="96.34" y2="103.33" gradientTransform="matrix(1, 0, 0, -1, -15.11, 429)" gradientUnits="userSpaceOnUse">
      <stop offset="0" stop-color="#ffc400"/>
      <stop offset="1" stop-color="#ff991f"/>
    </linearGradient>
  </defs>
  <title>team collaboration</title>
  <g id="Layer_2" data-name="Layer 2">
    <g id="Layer_1-2" data-name="Layer 1">
      <g id="Layer_1-2-2" data-name="Layer 1-2">
        <g>
          <g>
            <g>
              <path id="_Clipping_Path_11" data-name=" Clipping Path 11" class="cls-2" d="M487.4,378.7,282.7,343.1a2.4,2.4,0,0,1-1.8-2.5V86a2.3,2.3,0,0,1,1.8-2.5L487.4,47.9c2.3-.4,4.4,1.6,4.4,4.3V374.4C491.8,377.1,489.7,379.1,487.4,378.7Z"/>
              <g class="cls-3">
                <polygon class="cls-4" points="470.7 347.2 456 365.5 456 365.5 453.6 372.9 470.7 375.8 471.8 372.4 470.7 347.2"/>
              </g>
            </g>
            <polygon class="cls-5" points="328.3 107.9 296.1 112.2 296.1 107.1 328.3 102.6 328.3 107.9"/>
            <polygon class="cls-5" points="328.3 169 296.1 170.8 296.1 165.7 328.3 163.7 328.3 169"/>
            <line class="cls-6" x1="296.1" y1="125" x2="467.8" y2="105"/>
            <line class="cls-6" x1="296.1" y1="137.4" x2="467.8" y2="120.2"/>
            <line class="cls-6" x1="296.1" y1="149.8" x2="368" y2="143.8"/>
            <line class="cls-6" x1="306.9" y1="295.8" x2="368" y2="302.4"/>
            <line class="cls-6" x1="306.9" y1="308.4" x2="368" y2="316"/>
            <line class="cls-6" x1="306.9" y1="321" x2="368" y2="329.5"/>
            <path class="cls-5" d="M366,288.5l-68.2-6.2c-.9-.1-1.7-1.3-1.7-2.7V184c0-1.4.8-2.6,1.7-2.6l68.2-2.9c1.1,0,2,1.2,2,2.7V285.9C368,287.4,367.1,288.6,366,288.5Z"/>
            <polygon class="cls-7" points="300.3 276.1 300.3 187.7 363.1 185.6 363.1 281.3 300.3 276.1"/>
            <path class="cls-5" d="M465.3,297.5l-84.8-7.7c-1.1-.1-2-1.4-2-3v-106c0-1.6.9-2.9,2-2.9l84.8-3.6a2.8,2.8,0,0,1,2.5,3.1V294.6C467.8,296.3,466.6,297.6,465.3,297.5Z"/>
            <polygon class="cls-8" points="383.7 283 383.7 184.9 461.5 182.3 461.5 289.4 383.7 283"/>
            <polygon class="cls-9" points="400.9 241.7 394.9 270.9 419.5 261.1 400.9 241.7"/>
            <polygon class="cls-10" points="408.5 206.7 426.1 201.3 430.1 224.8 412.4 229.8 408.5 206.7"/>
            <path class="cls-11" d="M431.6,261.4c-3.2-4.4-3.2-11.3,0-15.4s8.7-3.9,12,.5,3.4,11.4,0,15.5S434.9,265.8,431.6,261.4Z"/>
            <path class="cls-5" d="M303.2,295.1c0,1.8-1.1,3.1-2.4,3s-2.4-1.7-2.4-3.4,1.1-3.1,2.4-3S303.2,293.4,303.2,295.1Z"/>
            <path class="cls-5" d="M303.2,307.6c0,1.8-1.1,3.1-2.4,2.9s-2.4-1.7-2.4-3.4,1.1-3.1,2.4-3S303.2,305.8,303.2,307.6Z"/>
            <path class="cls-5" d="M303.2,320.1c0,1.7-1.1,3-2.4,2.9s-2.4-1.8-2.4-3.5,1.1-3.1,2.4-2.9S303.2,318.3,303.2,320.1Z"/>
            <line class="cls-6" x1="392.1" y1="305" x2="468.1" y2="313.1"/>
            <line class="cls-6" x1="392.1" y1="318.9" x2="468.1" y2="328.3"/>
            <line class="cls-6" x1="392.1" y1="332.9" x2="462.4" y2="343.4"/>
            <path class="cls-5" d="M383.9,304.1c0,2-1.1,3.4-2.5,3.3s-2.6-1.9-2.6-3.9,1.1-3.4,2.6-3.2S383.9,302.1,383.9,304.1Z"/>
            <path class="cls-5" d="M383.9,317.9c0,2-1.1,3.4-2.5,3.3s-2.6-2-2.6-3.9,1.1-3.4,2.6-3.3S383.9,316,383.9,317.9Z"/>
            <path class="cls-5" d="M383.9,331.8c0,1.9-1.1,3.4-2.5,3.2s-2.6-2-2.6-4,1.1-3.4,2.6-3.2S383.9,329.8,383.9,331.8Z"/>
            <polygon class="cls-12" points="445.6 112.7 362 121.8 362 112.9 445.6 102.6 445.6 112.7"/>
            <rect class="cls-13" y="83.8" width="257.2" height="259" rx="3.1"/>
            <g>
              <path id="_Compound_Clipping_Path_2" data-name=" Compound Clipping Path 2" class="cls-14" d="M122.1,119.1H15.6a2.5,2.5,0,0,1-2.5-2.5V99.1a2.6,2.6,0,0,1,2.5-2.6H122.1a2.6,2.6,0,0,1,2.5,2.6v17.5a2.5,2.5,0,0,1-2.5,2.5Zm119.5,0H135.1a2.5,2.5,0,0,1-2.5-2.5V99.1a2.6,2.6,0,0,1,2.5-2.6H241.6a2.6,2.6,0,0,1,2.5,2.6h0v17.5a2.5,2.5,0,0,1-2.5,2.5ZM122.1,328.4H15.6a2.5,2.5,0,0,1-2.5-2.5V127.3a2.5,2.5,0,0,1,2.5-2.5H122.1a2.5,2.5,0,0,1,2.5,2.5V325.9a2.5,2.5,0,0,1-2.5,2.5Zm122-2.5V127.3a2.5,2.5,0,0,0-2.5-2.5H135.1a2.5,2.5,0,0,0-2.5,2.5h0V325.9a2.5,2.5,0,0,0,2.5,2.5H241.6a2.5,2.5,0,0,0,2.5-2.5Z"/>
              <g class="cls-15">
                <g>
                  <rect class="cls-16" x="21" y="234" width="95.6" height="42.42" rx="1.9"/>
                  <rect class="cls-17" x="62.6" y="244.6" width="95.6" height="42.42" rx="1.9"/>
                </g>
              </g>
            </g>
            <g>
              <polyline class="cls-18" points="142 322.2 138.9 322.2 138.9 319"/>
              <line class="cls-19" x1="138.9" y1="312.7" x2="138.9" y2="137.3"/>
              <polyline class="cls-18" points="138.9 134.2 138.9 131 142 131"/>
              <line class="cls-20" x1="148.2" y1="131" x2="231.6" y2="131"/>
              <polyline class="cls-18" points="234.7 131 237.8 131 237.8 134.2"/>
              <line class="cls-19" x1="237.8" y1="140.5" x2="237.8" y2="315.8"/>
              <polyline class="cls-18" points="237.8 319 237.8 322.2 234.7 322.2"/>
              <line class="cls-20" x1="228.5" y1="322.2" x2="145.1" y2="322.2"/>
            </g>
            <rect class="cls-21" x="21" y="134.9" width="95.6" height="42.42" rx="1.9"/>
            <rect class="cls-22" x="21" y="184.5" width="95.6" height="42.42" rx="1.9"/>
            <rect class="cls-23" x="68.8" y="238.3" width="95.6" height="42.42" rx="1.9"/>
            <line class="cls-24" x1="29.1" y1="143.4" x2="108.6" y2="143.4"/>
            <circle class="cls-25" cx="104.4" cy="215.8" r="5.8"/>
            <circle class="cls-26" cx="104.4" cy="166.1" r="5.8"/>
            <circle class="cls-26" cx="149.4" cy="269.5" r="5.8"/>
            <line class="cls-24" x1="29.1" y1="153.5" x2="83.5" y2="153.5"/>
            <line class="cls-24" x1="29.1" y1="192.8" x2="108.6" y2="192.8"/>
            <line class="cls-24" x1="29.1" y1="202.9" x2="83.5" y2="202.9"/>
            <line class="cls-24" x1="76.9" y1="246.9" x2="156.4" y2="246.9"/>
            <line class="cls-24" x1="76.9" y1="257.1" x2="131.3" y2="257.1"/>
            <rect class="cls-5" x="21" y="105.2" width="46.4" height="4.96"/>
            <rect class="cls-5" x="139.8" y="105.2" width="46.4" height="4.96"/>
            <rect class="cls-27" x="29.1" y="210.1" width="11.5" height="11.53" rx="1.9"/>
            <rect class="cls-10" x="76.9" y="263.7" width="11.5" height="11.53" rx="1.9"/>
            <rect class="cls-10" x="29.1" y="160.4" width="11.5" height="11.53" rx="1.9"/>
            <line class="cls-28" x1="342.6" y1="108.7" x2="342.6" y2="221.2"/>
            <line class="cls-29" x1="378" y1="105" x2="378" y2="217.5"/>
            <line class="cls-30" x1="342.6" y1="108.7" x2="269.8" y2="391.7"/>
            <g>
              <line class="cls-30" x1="336" y1="134.1" x2="371.7" y2="131"/>
              <line class="cls-30" x1="330.9" y1="154.2" x2="366.3" y2="151.8"/>
              <line class="cls-30" x1="325.7" y1="174.2" x2="361" y2="172.7"/>
              <line class="cls-30" x1="320.6" y1="194.2" x2="355.6" y2="193.5"/>
              <line class="cls-30" x1="315.4" y1="214.3" x2="350.3" y2="214.3"/>
              <line class="cls-30" x1="310.3" y1="234.3" x2="344.9" y2="235.1"/>
              <line class="cls-30" x1="305.1" y1="254.3" x2="339.6" y2="255.9"/>
              <line class="cls-30" x1="299.9" y1="274.4" x2="334.2" y2="276.7"/>
              <line class="cls-30" x1="294.8" y1="294.4" x2="328.8" y2="297.5"/>
              <line class="cls-30" x1="289.6" y1="314.4" x2="323.5" y2="318.3"/>
              <line class="cls-30" x1="284.5" y1="334.4" x2="318.1" y2="339.1"/>
              <line class="cls-30" x1="279.3" y1="354.5" x2="312.8" y2="360"/>
              <line class="cls-30" x1="274.2" y1="374.5" x2="307.4" y2="380.8"/>
            </g>
            <rect class="cls-31" x="139.8" y="58.9" width="33.3" height="71.14" rx="1.3"/>
            <rect class="cls-32" x="221.2" width="33.3" height="111.52" rx="1.6"/>
            <rect class="cls-33" x="180" y="18" width="33.3" height="103.63" rx="1.3"/>
            <g>
              <rect class="cls-34" x="190.4" y="197.3" width="27.8" height="78.86"/>
              <circle class="cls-35" cx="204.3" cy="197.3" r="13.9"/>
              <path class="cls-36" d="M213.4,193.8a1.5,1.5,0,0,0-.4-.9l-1.4-1.4a1.4,1.4,0,0,0-1.9,0l-6.6,6.6-3.1-3a1.4,1.4,0,0,0-1.9,0l-1.3,1.3a1.4,1.4,0,0,0,0,1.9h0l5.3,5.4h0l.8.4h.2a1.5,1.5,0,0,0,.9-.4l9-8.9A1.8,1.8,0,0,0,213.4,193.8Z"/>
            </g>
            <g>
              <rect class="cls-37" x="26.7" y="53.1" width="27.8" height="78.86"/>
              <circle class="cls-38" cx="40.6" cy="53.4" r="13.9"/>
              <path class="cls-36" d="M49.1,50.2a1.8,1.8,0,0,0-.4-1l-1.4-1.3a1.4,1.4,0,0,0-1.9,0l-6.6,6.6-3.1-3a1.2,1.2,0,0,0-1.9,0l-1.3,1.3a1.2,1.2,0,0,0,0,1.9h0l5.3,5.4h0a1.1,1.1,0,0,0,.8.3c0,.1.1.1.2.1a1.5,1.5,0,0,0,.9-.4l9-8.9A1.8,1.8,0,0,0,49.1,50.2Z"/>
            </g>
            <path class="cls-39" d="M393.8,324.1l9.9,7c2.6,1.8,5.2,3.6,8.7,3.4l1.7-.2,19.3-7.3-.6-4.6-20.3,5.1L396.7,318l-2.3,2.8Z"/>
            <g>
              <polygon id="_Clipping_Path_13" data-name=" Clipping Path 13" class="cls-40" points="470.7 347.2 455.3 324.9 444.3 340.9 470.7 347.2"/>
              <path class="cls-41" d="M365.3,263.2l-11,16h0l-8-5.5a9.8,9.8,0,0,1-2.5-13.5h0a9.8,9.8,0,0,1,13.5-2.5l8,5.5Z"/>
              <rect class="cls-42" x="395.1" y="247.5" width="19.4" height="109.14" transform="translate(-73.3 465.1) rotate(-55.6)"/>
              <polygon class="cls-43" points="461.3 345 470.7 347.2 465.2 339.3 461.3 345"/>
              <rect class="cls-44" x="402.7" y="243.5" width="9.7" height="109.14" transform="translate(-68.8 465.6) rotate(-55.6)"/>
              <line class="cls-45" x1="356.7" y1="257.3" x2="345.7" y2="273.3"/>
              <line class="cls-45" x1="360" y1="259.6" x2="349.1" y2="275.6"/>
            </g>
            <ellipse class="cls-46" cx="281.1" cy="394.7" rx="43.3" ry="5.8"/>
            <path class="cls-47" d="M446.8,108.3l-2.8-.2a1.1,1.1,0,0,0-1,.6l-1.7,3.7-.7-.4-.8,1.6a12.7,12.7,0,0,1-6.2,6.3l-.3.2a12.3,12.3,0,0,0-6.2,6.3l-48.8,106a9.9,9.9,0,0,0,4.9,13.2h0a9.9,9.9,0,0,0,13.1-4.9l38.9-84.5h0l3.7-8.1h0l1.3-2.8h0l1.3-2.9,3.4-7.3a12.8,12.8,0,0,0,.5-9.6h0a12.8,12.8,0,0,1,.5-9.6l.5-1.2-.9-.4,2.1-4.6a.9.9,0,0,0-.4-1.3Z"/>
            <path id="_Path_4" data-name=" Path 4" class="cls-48" d="M324.5,163.4a69.9,69.9,0,0,1-3.9,18.8,28.3,28.3,0,0,1-11.9,4.2,17.9,17.9,0,0,1-6.5-.4c-3.2-.9-7.3-3.1-7.1-4.8s5-2.7,8.1-2.7a13.6,13.6,0,0,1,2.9.3,25.6,25.6,0,0,0,10.3-1.2c1.6-4.6,3.2-9.3,4.9-14Z"/>
          </g>
          <g>
            <ellipse class="cls-49" cx="166.1" cy="413.6" rx="32.6" ry="6.3"/>
            <g>
              <path class="cls-50" d="M179.3,318.2a4.9,4.9,0,0,1,1.1,1.4c1,2.3.7,4.7.9,8.5s0,2.9.1,5,.4,3.8-.4,5.4l-.9,1.4-13.8,13.5-3.5-2.5,12.1-13.1-1-19.7,3.2-.9A3.7,3.7,0,0,1,179.3,318.2Z"/>
              <path class="cls-51" d="M180.4,319.6a4.9,4.9,0,0,0-1.1-1.4,3.7,3.7,0,0,0-2.2-1l-3.2.9,1.1,9.3a14.5,14.5,0,0,0,6.2-1.1C181.2,323.5,181.3,321.5,180.4,319.6Z"/>
              <path class="cls-27" d="M165.4,395a38.2,38.2,0,0,0,.5,6.8c.2,1.4.5,3,.9,5.7a15.8,15.8,0,0,1,.3,2.6h-2.2l-.7.2-.6.3a1.3,1.3,0,0,0,.1.5c.6.8,1.6.7,2.9,1.5l1.2.7a2.2,2.2,0,0,0,1.6,0,1.5,1.5,0,0,0,.8-1.6,23.6,23.6,0,0,1-.2-3,38.2,38.2,0,0,1,.6-6.8c.2-1.3.5-3.7,1-7.3Z"/>
              <path class="cls-50" d="M175.2,344.4v-.6a30,30,0,0,0-1.1-5.2,8.3,8.3,0,0,0-.4-1.5,14.2,14.2,0,0,0-.8-1.8l-1.4.4-1.2.2c-1.3.2-3.7.5-10.3,1l-1.3,1.8a23.3,23.3,0,0,0-2.6,6.6c-4.4,19.3-5.3,26.9-5.3,26.9h0c-.7,3.8-1.3,7.6-2,11.4,0,2.2-.1,4.5-.3,6.8s-.3,5.2-.5,7.7l5.9.7a32.7,32.7,0,0,0,.4-5.4c0-2.7-.3-4.3.2-6.8a24.5,24.5,0,0,1,.8-2.9,40.3,40.3,0,0,0,1.9-4.3,63.7,63.7,0,0,0,2.6-9.5c1.5-6,4.6-11.2,5.3-11h0C166.4,353,171.1,348.7,175.2,344.4Z"/>
              <path class="cls-50" d="M165.5,358.1c.9.4-3.3,10.6-.8,20.9a30.1,30.1,0,0,1,.9,4.1,25.7,25.7,0,0,1-.2,4.8,42.1,42.1,0,0,0,0,7.1h6.1a54.6,54.6,0,0,0,.1-10.7c-.1-1.1-.3-2.2-.5-3.3a36.4,36.4,0,0,0,1.3-7.2c.2-2.1.5-7,.6-8.9,0-.2,0-1.1.1-2.3a5.1,5.1,0,0,1,.2-.9c.4-2.6,2.3-13.2,1.9-17.7C171.3,348.3,166.7,352.4,165.5,358.1Z"/>
              <path class="cls-50" d="M177.5,322.2a5,5,0,0,0-2-6l-1-.5a63.5,63.5,0,0,0-15.6-2.5,16,16,0,0,1-4.5-.3c-2.1-.6-3.1-1.5-5.9-3.2a45.9,45.9,0,0,0-4.9-2.6c-.6-2.6-1.1-4.7-1.4-6.2-.9-4-1.3-5.3-1.6-7.5a40.7,40.7,0,0,1-.6-6l-1.3-.2h-.3l-1.6-.4a88.1,88.1,0,0,0,1.6,23.5c5.8,5.7,10.5,8.2,13.9,9.5,1.5.6,5.1,1.9,6.7,5.2a7.8,7.8,0,0,1,.7,3.3,19.8,19.8,0,0,1-1.7,9.6l7.5.7,9.2.7a46.2,46.2,0,0,1,1.7-13.8A25.5,25.5,0,0,1,177.5,322.2Z"/>
              <path class="cls-52" d="M165.6,307.5a5.7,5.7,0,0,1,1.8,4.8,5.1,5.1,0,0,1-1.5,3.1l8.9,1.1a3.7,3.7,0,0,1-1-2.8,3.6,3.6,0,0,1,1.1-2.6Z"/>
              <path class="cls-53" d="M172.9,297.7c-1-1.2-4.3-.6-6.3.6a7.1,7.1,0,0,0-3.1,3.1c-.5,1.2-.5,2.7-1.7,3.4a1.6,1.6,0,0,0-.8.6,2.7,2.7,0,0,0-.5,2.3c.1.4.4,1,2.8,2.4l.5.3a3.5,3.5,0,0,0,4.5-1.2C173.5,301.4,173.7,298.7,172.9,297.7Z"/>
              <path class="cls-50" d="M169.4,297.4a16.2,16.2,0,0,0-3.3,4.6c-.1.2-.2.3-.6.5s-1,.2-1,.6.7.8.8,1.1l-1,4.5,1.7.9,5.7,3c0-.3-1.7-6.7-1.6-7.1s.1-1-.2-1.3-.7-3.9-.9-4.4a2,2,0,0,1,.1-1.3A6,6,0,0,1,169.4,297.4Z"/>
              <path class="cls-53" d="M169.3,297.5a7.3,7.3,0,0,0-.2,4.4c.1.9.7,4.3-1,7a3,3,0,0,0,1,4.1h.2a8,8,0,0,0,2.6.9,5.1,5.1,0,0,0,3-.2c2.1-.8,2.9-3,3.4-4.3a11.1,11.1,0,0,0,.5-5.7,12.1,12.1,0,0,0-.5-1.8C177.4,299.8,173.5,295.9,169.3,297.5Z"/>
              <path class="cls-50" d="M138.9,280.9h-.7l-1,.6a2.9,2.9,0,0,0-.7,1.8,8.1,8.1,0,0,0-.1,2.2,6.2,6.2,0,0,0,.7,1.9c.7,1,1.9,1.8,2.5,1.5s.3-.7.4-1.6.7-2,.9-3.3-.3-1.2-.7-4.5a5.9,5.9,0,0,0-.4-2.4c-.2,0-.4.5-.4.8S139.4,280.5,138.9,280.9Z"/>
              <g>
                <path id="_Path_5" data-name=" Path 5" class="cls-54" d="M152.3,319.8c3,1.6,5.6,2.8,6.7,5.2a7.8,7.8,0,0,1,.7,3.3c.2,6.9-10,40-10.8,42.8a32.6,32.6,0,0,0,26.4,5.1,169.8,169.8,0,0,0,.6-20.2c-.1-11.7-1.7-17.5.1-27.3a33.9,33.9,0,0,1,4.3-9.5,12.2,12.2,0,0,0-3.6-3.2,13.6,13.6,0,0,0-4.3-1.4c-4.8-.8-8.6-1.1-9.2-1.2l-8.2-.5Z"/>
                <path class="cls-51" d="M175.7,371.9c0-1.1.1-2.1.1-3a36.7,36.7,0,0,1-12.8-.1,53.1,53.1,0,0,1-12.2-4.1c-.3,1-.5,1.8-.8,2.6a42.3,42.3,0,0,0,12.4,4.7A35,35,0,0,0,175.7,371.9Z"/>
                <path class="cls-51" d="M163,362.6a56.9,56.9,0,0,1-10.6-3.4c-.3,1-.5,2-.8,2.9a44.2,44.2,0,0,0,10.8,3.6,38.3,38.3,0,0,0,13.5.5v-2.7A56.1,56.1,0,0,1,163,362.6Z"/>
              </g>
              <path class="cls-27" d="M148.1,395.7c-.3,4-.4,7.3-.4,9.5-.1,5,0,6.8-1.3,8.2s-5.5,1.6-5.5,2.3.9.7,1.3.8,2.4-.1,4.4-.1,3.1.7,3.9,0a2.9,2.9,0,0,0,.6-2.2,5.8,5.8,0,0,1-.1-1.5,25.4,25.4,0,0,1,1.3-7.2,34,34,0,0,0,1.8-8.4Z"/>
              <path class="cls-53" d="M144.5,414.6h2.6a3.1,3.1,0,0,0,1.8-.9,4.1,4.1,0,0,1,1.9-.8h.2a5.3,5.3,0,0,0,.1,1.4,2.9,2.9,0,0,1-.6,2.2c-.8.7-1.6,0-3.9,0s-2.7.6-4.4.1-1.3-.4-1.3-.8S142.7,415.3,144.5,414.6Z"/>
              <path class="cls-53" d="M164.9,410.2h1.8a1.2,1.2,0,0,0-.8.5c0,.2.4.4.9.6l.5.2c.4,0,.5-.5,1-.7h1.1l.7-.2a6.1,6.1,0,0,0,.1,1.4,1.5,1.5,0,0,1-.8,1.6,2.2,2.2,0,0,1-1.6,0l-1.2-.7c-1.3-.8-2.3-.7-2.9-1.5a.9.9,0,0,1-.1-.5S163.7,410.5,164.9,410.2Z"/>
            </g>
          </g>
          <g>
            <ellipse class="cls-55" cx="422.9" cy="421.2" rx="32.6" ry="6.3"/>
            <g>
              <path class="cls-56" d="M413.2,294.7a2.7,2.7,0,0,1-1.6,1c-.9,0-1.3-.8-2.6-2.1s-3.7-2.5-3.5-3,.2-.2,1.4-.3,2.9-.3,3.3-.2a3.5,3.5,0,0,1,1.6.8,2.8,2.8,0,0,1,.8,1.5Z"/>
              <path class="cls-56" d="M392.8,345.6a10.7,10.7,0,0,1,1.4-3.5l1.6.4,1.3.2c1.4.2,4.1.5,11.5,1.1l1.4,1.9a24.1,24.1,0,0,1,2.9,7c4.9,20.4,5.3,21.1,5.3,21.1.7,4,1.4,8,2,12,1.3,8,3,23.1,3.9,30.8a3.1,3.1,0,0,1-.9,1.4,3.4,3.4,0,0,1-1.5.6c-1.8.3-5.1-9.6-5.1-9.6a89.3,89.3,0,0,1-3.5-20.1,29.2,29.2,0,0,1,.4-5.1L407,371.5l-5-9.6c.1,7.7.1,15.4,0,23.3,0,9.5-.2,18.9-.4,28.2a2,2,0,0,1-.9.5,3.2,3.2,0,0,1-1.7-.1,5.2,5.2,0,0,1-2.2-1.4,128.8,128.8,0,0,1-2.2-17.5c-.6-8.3.2-7.7-.3-14.4-.7-10.2-3.4-24.7-2.7-29.5C391.8,350.3,392.4,347.3,392.8,345.6Z"/>
              <path class="cls-53" d="M401.1,304.2c.5-.9,1.2-2.1.7-2.8s-1.3-.1-3.7,0-3.7-.5-5.4,0a6.5,6.5,0,0,0-3.4,2.4c-1.6,2.3-.9,5.2-.7,6.1a10.2,10.2,0,0,0,4.4,5.6l1.9,1.1,5.2-8.9Z"/>
              <path class="cls-57" d="M395.1,319.8h7a12.6,12.6,0,0,1-.7-7.9l-4.3-.2a9.3,9.3,0,0,1-.3,1,5.6,5.6,0,0,1-.4,1.2,2.7,2.7,0,0,1-1.9.8Z"/>
              <path class="cls-39" d="M393.6,380.5v-.4c-.3-4.1-.9-8.8-1.5-13.4-.9-6.8-1.7-13.3-1.2-16.2.1-.8.8-3.9,1.1-5.6l.6-1.7a8.8,8.8,0,0,1,.9-2l.3-.5.6.2,1.5.3,1.1.2h.2c1.3.2,4,.5,11.4,1.1h.4l.2.3a24.3,24.3,0,0,1,1.4,2,23.9,23.9,0,0,1,3,7.2c4.5,18.3,5.2,20.8,5.3,21.1h.1c.3,1.7.5,3.4.8,5.1-2.2,1.8-5.5,2.3-8.8,2.1-1.5-3-3.1-6-4.7-9l-3.4-6.7c0,5,0,9.9-.1,14.8A16.1,16.1,0,0,1,393.6,380.5Z"/>
              <path class="cls-58" d="M393.9,355.8a11.3,11.3,0,0,1-2.3-4.8,15.8,15.8,0,0,1,.4-6.1l.6-1.7a8.8,8.8,0,0,1,.9-2l.3-.5.6.2,1.5.3,1.1.2h.2c1.3.2,4,.5,11.4,1.1h.4l.2.3a24.3,24.3,0,0,1,1.4,2c2.6,4.1,3.5,9.4,4.7,14s1.8,7,2.6,10.5c.3.8,2.6,8.4,1.9,9s-5.5,2.3-8.8,2.1c-1.5-3-3.1-6-4.7-9s-3.5-7.1-6.5-10A52.1,52.1,0,0,1,393.9,355.8Z"/>
              <path class="cls-56" d="M401.1,304.2l.9,2.3,3,1.8c-.2.5-.5.9-.7,1.3l.3,4.6a10.5,10.5,0,0,1-3,1.5c-.4.2-.6.2-4.1.3-1.6,0-2.4.1-2.7-.4a1.8,1.8,0,0,1-.1-1.9c.2-.5.5-.5.8-1s-.1-1.4.1-2.2.9-.7,1.9-1.7.8-1.9,1.9-3.2A5.8,5.8,0,0,1,401.1,304.2Z"/>
              <path class="cls-26" d="M426.9,319a60.1,60.1,0,0,1-16.9,8.2c0,2.1,3.4,19.7,4,23a51.4,51.4,0,0,1-11.2,2.4,34.5,34.5,0,0,1-12.8-.9c-.2-4.5.6-15.4-.9-21.2-.3-1.3-.6-2.5-1-3.7a4.7,4.7,0,0,1,1.9-5.3h.1l.7-.4,1.7-1c3.6-1.7,10.2-2.4,10.2-2.4l7-.9c3-.5,5.8-1,8.4-1.7-1.2-3.2-2.5-6.4-3.9-9.7s-2.8-6.5-4.2-9.6l3.5-2.4c2.2,3.5,4.5,7.3,6.8,11.5S424.9,314.2,426.9,319Z"/>
              <path class="cls-59" d="M396.5,415.6h5.4c-.1-.9-.1-1.9-.2-2.9a11.5,11.5,0,0,1,.1-1.9,15.1,15.1,0,0,0-5.2,0,15.5,15.5,0,0,1-.1,4.8Z"/>
              <path class="cls-59" d="M419.7,419.6h5.4c0-1-.9-3.9-1-4.9l-2.9-.3-2.7-.4c.2.9.5,1.8.7,2.8S419.5,418.7,419.7,419.6Z"/>
              <path id="_Path_6" data-name=" Path 6" class="cls-43" d="M400.8,415.2h0c.1.1.4-.8.8-1s0,2,1.8,3.5a7.2,7.2,0,0,0,2.1,1.2.8.8,0,0,1,.4.7v.6H395.5a14.3,14.3,0,0,1,.9-5Z"/>
              <path id="_Path_7" data-name=" Path 7" class="cls-43" d="M424,419.2h0c.1.1.4-.8.8-1s2,1.9,4.3,3.4a9,9,0,0,0,2.8,1.3.6.6,0,0,1,.5.6v.7H418.7a14.3,14.3,0,0,1,.9-5Z"/>
              <path class="cls-53" d="M404.3,309.6a1.1,1.1,0,0,1,.4,1.2,4.6,4.6,0,0,1-2,.5,3.1,3.1,0,0,0,.1.9c.1,1,.2,1.1.3,1.2s.9-.2,1.2-.7a1.5,1.5,0,0,0,.1-.7,1.9,1.9,0,0,1,.7,1.1,2.2,2.2,0,0,1-.3,1.6,3.2,3.2,0,0,1-2.1,1.3h-.2c-3.9.2-4.1.2-4.4.1-2.2-.7-2-7.4-2-7.7l2.4-1.5a3.5,3.5,0,0,0-.3,2.8c.1.2.5,1.3,1.5,1.5s1.4-.9,3.2-1.4Z"/>
            </g>
          </g>
          <ellipse class="cls-60" cx="79.3" cy="410.5" rx="33.5" ry="6.9"/>
          <g>
            <path class="cls-61" d="M89.5,308.4a6.3,6.3,0,0,1-3.3,4.3,5.6,5.6,0,0,1-5.8-1,18.1,18.1,0,0,0,0-9.8l7.8,2c0,.8-.1,1.7-.1,2.5s.2,1.5.5,1.8A1,1,0,0,0,89.5,308.4Z"/>
            <path class="cls-62" d="M121.7,315.4l4.5,1.1a.5.5,0,0,1,.5.3.7.7,0,0,1-.1.6.7.7,0,0,1,.4.6.8.8,0,0,1-.5.7.9.9,0,0,1,.1.5,1.1,1.1,0,0,1-1.2.5.8.8,0,0,1-.2.5.7.7,0,0,1-.6.3h-2.7a3.6,3.6,0,0,1-2-.6l-.6-.8c-.8.5-1.1.3-1.2.3s-.2-1.5.5-2.9Z"/>
            <path class="cls-62" d="M103.1,321.8a2.6,2.6,0,0,1,1.5.2,32.9,32.9,0,0,1,4.2-2.1c2.9-1.3,4.5-1.5,7.6-2.9l2.7-1.4.3,3.3a86.4,86.4,0,0,1-8.8,7.2,14.1,14.1,0,0,1-3.2,1.7c-1.4.5-5,1.8-6.3.2S101.1,322.2,103.1,321.8Z"/>
            <path class="cls-63" d="M103.9,328.8a4.4,4.4,0,0,1-2,.2,6.8,6.8,0,0,1-3.8-2.7c-2.1-2.2-3.6-4-4.9-5.4l.3-11.7a23.4,23.4,0,0,1,2.4,3.1c2,2.9,2.8,5.4,4.8,6l.9.4a6.3,6.3,0,0,1,3.1,3.7A7.6,7.6,0,0,1,103.9,328.8Z"/>
            <path class="cls-64" d="M85.7,413.7a3.6,3.6,0,0,0-.8-.9,10,10,0,0,0-3.3-2.2,12.1,12.1,0,0,1-4.3-3.8l-3.8.7a13.7,13.7,0,0,0-.7,2.4,24.5,24.5,0,0,0-.2,2.7h2.5a1,1,0,0,1,.6-.5c.4-.1.8.5,1,.6s4,1.4,5.7,1.4A12.4,12.4,0,0,0,85.7,413.7Z"/>
            <path class="cls-64" d="M102.5,412.4l-.9-.9a9.6,9.6,0,0,0-3.3-2.2,13.5,13.5,0,0,1-4.2-3.7l-3.8.6a10.9,10.9,0,0,0-.7,2.4,12.3,12.3,0,0,0-.2,2.7h2.4a1.8,1.8,0,0,1,.7-.5c.4,0,.8.5,1,.7s4,1.3,5.7,1.3A12.4,12.4,0,0,0,102.5,412.4Z"/>
            <path class="cls-65" d="M93.7,336.9c.9,7,1.6,14.4,2,22.2a335.4,335.4,0,0,1-.6,47,7.5,7.5,0,0,1-5.7.2c-.2-6.2-.2-11.5-.2-16,0-1.8.1-3.2.1-4s.1-4.7.1-7.5L87,355.3c-.5,3-.8,5.4-1.1,7.1-.7,5.2-.9,7.5-1.7,12.4-.3,2.3-.7,4-.8,4.8-1.1,6-2.6,15-4.2,27.9a13.8,13.8,0,0,1-6.7.1L74.6,372c.4-6.8,1-13.6,1.6-20.6.5-4.4.9-8.8,1.4-13.1Z"/>
            <path id="_Path_8" data-name=" Path 8" class="cls-66" d="M91.3,308.3H89l-2.7,3.4-5.2-3.4L73.9,313c.2,1.2.4,2.9.7,5,.6,4.6.9,6.9,1.3,8.8s.9,3.8,1.3,6.6.3,3.7.4,4.9c2.9.9,9.5.8,9.8-.2.6.8,4.8.2,6.3-.9a22.7,22.7,0,0,0-.1-2.4c-.1-1-.1-1.4-.2-2.1a12.7,12.7,0,0,1,.3-2.8c1-4.5-1.2-6.1-.2-11a31.2,31.2,0,0,0,.9-4.4,12.2,12.2,0,0,0-.1-3.3,2.9,2.9,0,0,0-2.8-2.9Z"/>
            <path class="cls-67" d="M86.5,311.6,88,338.9l-.6-.8-.3,1.1-1.5-27.9.7.5Z"/>
            <path class="cls-62" d="M119.3,315.5l.8-.3a4.3,4.3,0,0,1,2.2-.4h3.3a1.3,1.3,0,0,1-1.2,1.3h-1.2l-3.5,2.3-1.5-1.4h0A1.9,1.9,0,0,1,119.3,315.5Z"/>
            <path class="cls-62" d="M76,330.3a2.3,2.3,0,0,1-.2,1.4,26.4,26.4,0,0,1,1.8,3.8c1,2.7,1.2,4.1,2.4,7l1.2,2.4-2.8.3a85,85,0,0,1-6-8.1,9.7,9.7,0,0,1-1.4-2.9c-.4-1.2-1.5-4.5-.1-5.7S75.7,328.5,76,330.3Z"/>
            <path class="cls-62" d="M81.2,343.4l.5.6a7.6,7.6,0,0,1,.9,1.8l.8,2.9h0a1.1,1.1,0,0,1-1.3-.7l-.4-1-2.8-2.4.7-1.6h0A1.3,1.3,0,0,1,81.2,343.4Z"/>
            <path class="cls-51" d="M86.3,311.7l-1.2,2.5-4.8-5.4a5.4,5.4,0,0,0,.7-1.3l1,1.5Z"/>
            <path class="cls-51" d="M88.1,307.6c.1.7.2.9.3,1l.3.2-2.4,3,1.8,1.5,2.1-4.9-1.1-1.1-1-.3Z"/>
            <g>
              <path id="_Clipping_Path_16" data-name=" Clipping Path 16" class="cls-68" d="M85.9,306c3.5.5,3.8.6,4.2.2a9.2,9.2,0,0,0,.9-2.5c.2-.8.3-1.4.4-1.9s.9.3,1.1,0,0-.5-.2-1.1a10.5,10.5,0,0,1-.5-1.9v-.4a8.3,8.3,0,0,0-.3-2.2,7,7,0,0,0-1.9-2.9,6.1,6.1,0,0,0-6.9-.9,6.2,6.2,0,0,0-3.1,5,12.3,12.3,0,0,0,.7,4.2h0a.4.4,0,0,0,.1.3c.1.5.9,1,.9,1s.8.2,1.1.5.5,1.2,1,1.8S84.2,305.8,85.9,306Z"/>
              <g class="cls-69">
                <path class="cls-53" d="M85.9,297.9a6.7,6.7,0,0,0-.4,2.4H84.4c-.3-.4-.7-.8-1-.7s-.3,2.5-1.2,2.9-1.7-.5-1.8-.6-1.9-3.8-1.3-5.9a6.2,6.2,0,0,1,3.1-3.6,7.5,7.5,0,0,1,5.5-.6,7,7,0,0,1,4.2,3.7c.1.2.6,1.3.3,1.6s-.5.1-1.9-.5-2.5-1.5-3-1.3S86.2,296.6,85.9,297.9Z"/>
              </g>
            </g>
            <path class="cls-70" d="M77.7,312.2a3.3,3.3,0,0,0-2.9.2,4.5,4.5,0,0,0-1.7,2.4c-1.4,4-1.4,5.7-2.4,9s-1.3,3.4-.9,5.5c.1.5.3.9.4,1.4a6.4,6.4,0,0,1,3.6.5,7.7,7.7,0,0,1,2.9,2.2,3.1,3.1,0,0,0,1.3-1.7,2.9,2.9,0,0,0-.3-2.2c-.5-1.2-.4-4.4,2-12.7A3.7,3.7,0,0,0,77.7,312.2Z"/>
            <polygon class="cls-62" points="81.4 344.9 81.7 347 77.9 345.8 77.5 344.1 81.4 344.9"/>
          </g>
          <path class="cls-71" d="M299.4,207.3a14.8,14.8,0,0,1,1.3-3.5l1.6.4,1.4.2c1.4.2,4.1.5,11.4,1.1l1.4,1.9a25.3,25.3,0,0,1,2.9,7c4.9,20.4,8.6,36.2,10.5,53.4l-4.4,1.2a19.4,19.4,0,0,1-1.1-2.4,71.6,71.6,0,0,1-3.5-9.8c-2.2-6.9-2.7-7.6-3.1-10.3a45.2,45.2,0,0,1-.2-5.2,40.2,40.2,0,0,1-8.8-15.9c.3,4.5.4,9.2.5,14a222,222,0,0,1-1.4,27,4.7,4.7,0,0,1-1.5.6,3.3,3.3,0,0,1-1.7-.2c-.9-.3-1.9-.5-2.2-1.3a2.2,2.2,0,0,1,.6-1.9,72.7,72.7,0,0,1-1.9-20.8,115.5,115.5,0,0,1-2.4-11.7s-1.6-11.3-.6-18.4C298.5,211.3,299.2,208.3,299.4,207.3Z"/>
          <path class="cls-53" d="M341.5,275.3l-3.9-1.3a11,11,0,0,1-7.7-9.1c-.1-.7-.6-3.9-.9-5.3a10.8,10.8,0,0,0-3.1-.1,9.1,9.1,0,0,0-4,1.8,45.7,45.7,0,0,1,2.2,6.2,41,41,0,0,1,1,6.9,18.7,18.7,0,0,1,.1,2.1h3.9l.6-.7,1.1.7h9.9Z"/>
          <path class="cls-53" d="M301.9,260.6a6.5,6.5,0,0,1,7.1,0,16.7,16.7,0,0,0-.5,3.1c-.2,2.3-1,6.2-.2,6.9l2.9,1.9.7,1.5a10.2,10.2,0,0,0-4.3.6l-1.7.8a2.2,2.2,0,0,1-2.1-.1,1.7,1.7,0,0,1-.7-1.3Z"/>
          <line class="cls-30" x1="378.3" y1="105.4" x2="302.9" y2="398.5"/>
          <g>
            <g>
              <path id="_Path_9" data-name=" Path 9" class="cls-51" d="M439.5,112.6l1.2-.5-2.5-6-1.6.7a12.7,12.7,0,0,1-8.8.4h-.4a12.7,12.7,0,0,0-8.8.5L310.9,152.7a9.9,9.9,0,0,0-5.3,12.9h0a9.9,9.9,0,0,0,13,5.4l107.2-45a12.6,12.6,0,0,0,6.9-6.7h0A13.1,13.1,0,0,1,439.5,112.6Z"/>
              <path class="cls-72" d="M412.6,131.6c-5.2-1.1-12.1-3.1-17.4-4.5s-10.1-2.8-14.1-3.8l-8.4,3.5c6.1,1.1,15,3.6,21.1,5.3l10.6,2.9Z"/>
              <path class="cls-72" d="M341.7,139.8c28.1,6.6,35.1,5.4,36.8,1.3s-2.6-7.4-6.9-11.2l-2-1.8-5.2,2.2c1,1.1,2.4,2.3,3.7,3.5a42.6,42.6,0,0,1,5.2,5.2c-1.6.4-6.7.8-23.2-2.7Z"/>
              <path class="cls-72" d="M396.2,116.9c10.4,6.7,16.1,10.9,19.2,13.5l5.4-2.2c-3.2-3-8.9-7.3-18.7-13.7Z"/>
            </g>
            <path class="cls-65" d="M447.7,107.2l-2.8-2.9a1.3,1.3,0,0,0-1.5-.4l-5.2,2.2,2.5,6,6.6-2.8a1.2,1.2,0,0,0,.7-1.7C448,107.4,447.9,107.3,447.7,107.2Z"/>
          </g>
          <g>
            <path class="cls-73" d="M339.3,159.7l.5-1.8,1.2-2.1a18.4,18.4,0,0,0,.5-5.2,19.4,19.4,0,0,0-.2-2.4l-.8-.3-.8-.3h-.6c-1.1.2-1.7,1.5-2,2.6s.1,1.9-.6,2.5l-.2.2a2.5,2.5,0,0,0-.9-1.9l-1-.2a1.9,1.9,0,0,1,.2.7,11.7,11.7,0,0,1,.4,2.6l.4,2.5-.3,1.8Z"/>
            <g>
              <path class="cls-68" d="M299.9,182.1h7a13.4,13.4,0,0,1-.8-7.9l-4.2-.2a6.2,6.2,0,0,0-.3,1,2.1,2.1,0,0,1-.4,1.2c-.5.5-1.4.2-1.7.1Z"/>
              <path class="cls-73" d="M306,167.7a8,8,0,0,0,3,4.4l-.8,1c-.2,1.4-.3,2.8-.5,4.2a10,10,0,0,1-2.9,1c-1.3.2-3,.5-3.8-.4a3.1,3.1,0,0,1-.5-2.1,8.8,8.8,0,0,1,.2-1.7,7.9,7.9,0,0,1,1.3-2.6,10.5,10.5,0,0,1,2.4-2.8Z"/>
              <path class="cls-74" d="M333.7,182a55.6,55.6,0,0,1-19,7.9,57.9,57.9,0,0,0,3.5,16.9,26.3,26.3,0,0,1-19.1,1.4,42.9,42.9,0,0,0-2.2-15.1,45.3,45.3,0,0,0-3.2-7.1,23.7,23.7,0,0,1,3-2.3l.7-.5,1.7-.9c3.6-1.8,10.1-2.4,10.1-2.4,8.9-.8,8.6-.6,10.4-.9a38.8,38.8,0,0,0,9.4-2.7c2.1-6.3,4.2-12.6,6.2-19l5,1.3c-.8,4.1-1.8,8.5-3.1,13S334.9,178.8,333.7,182Z"/>
              <path class="cls-75" d="M295.1,172.1c-1.5,4.7-6.2,4.4-6.9,8s2.3,8.3,6.2,8.4c2.2,0,4.4-1.7,5.7-4.1a4.2,4.2,0,0,0,2.2.3,4.7,4.7,0,0,0,2.8-2.4c1.3-2.3.2-6.2-2.6-9.7a22,22,0,0,0,4.8-5.3,6,6,0,0,0-6.6-3.6,7.1,7.1,0,0,0-4.1,2.1C295,167.8,296,169.4,295.1,172.1Z"/>
            </g>
          </g>
          <g class="cls-76">
            <path id="_Clipping_Path_17" data-name=" Clipping Path 17" class="cls-77" d="M304.7,88.6h0a10.6,10.6,0,0,0-10.6-10.5h-12a10.5,10.5,0,0,0-10.5,10.6h0a10.5,10.5,0,0,0,10.5,10.5h0a4.5,4.5,0,0,1,4,2.2l.8,1.2.7-1.2a4.7,4.7,0,0,1,4-2.2h2.5A10.7,10.7,0,0,0,304.7,88.6Z"/>
          </g>
          <path id="_Clipping_Path_18" data-name=" Clipping Path 18" class="cls-77" d="M450.1,59.3h0a14.6,14.6,0,0,0-14.6-14.5H419a14.5,14.5,0,0,0-14.5,14.5h0A14.5,14.5,0,0,0,419,73.8h0a6.6,6.6,0,0,1,5.6,3.1l1,1.6,1-1.7a6.7,6.7,0,0,1,5.5-3h3.5a14.5,14.5,0,0,0,14.5-14.5Z"/>
        </g>
      </g>
    </g>
  </g>
</svg>
